<svg xmlns="http://www.w3.org/2000/svg" viewBox="0 0 900 360"><defs><linearGradient id="sky" x1="0" y1="0" x2="0" y2="1"><stop stop-color="#63c7f2"/><stop offset="1" stop-color="#dff7d0"/></linearGradient><linearGradient id="grass" x1="0" y1="0" x2="0" y2="1"><stop stop-color="#7dc44c"/><stop offset="1" stop-color="#2f7b3c"/></linearGradient></defs><rect width="900" height="360" fill="url(#sky)"/><circle cx="760" cy="72" r="30" fill="#fff3a6"/><g fill="#fff" opacity=".75"><ellipse cx="150" cy="70" rx="54" ry="18"/><ellipse cx="205" cy="68" rx="34" ry="14"/><ellipse cx="495" cy="92" rx="58" ry="18"/></g><path d="M0 240 165 120 320 232 475 95 640 235 785 138 900 226V360H0Z" fill="#3f7b59"/><path d="M0 254 170 157 330 248 490 135 660 252 790 176 900 242V360H0Z" fill="#67a75d"/><path d="M0 286c125-28 214-16 330 4 125 22 230-26 360-9 82 11 130 11 210 1v78H0Z" fill="url(#grass)"/><path d="M105 320c85-35 170-33 260-5 92 28 166 18 243-5 95-29 174-25 292-3v53H0v-30Z" fill="#4f9d42"/><g fill="#23643a"><circle cx="78" cy="256" r="22"/><circle cx="110" cy="264" r="17"/><circle cx="720" cy="258" r="26"/><circle cx="756" cy="268" r="18"/></g></svg>